<svg width="449.958740234375px" height="122px" xmlns="http://www.w3.org/2000/svg" viewBox="25.0206298828125 14 449.958740234375 122" style="background: rgba(0, 0, 0, 0);" preserveAspectRatio="xMidYMid"><defs><filter id="editing-extrude-glow"><feFlood flood-color="#333333" result="flood-1"></feFlood><feMorphology operator="erode" radius="1" in="SourceAlpha" result="erode"></feMorphology><feComposite operator="in" in="flood-1" in2="erode" result="comp1"></feComposite><feConvolveMatrix order="3,3" divisor="1" in="comp1" result="convolve" kernelMatrix="0 0 0 1 1 1 0 0 0"></feConvolveMatrix><feOffset dx="-3" dy="0" in="convolve" result="extrude"></feOffset><feComposite operator="in" in="flood-1" in2="extrude" result="comp-extrude"></feComposite><feFlood flood-color="#000000" result="flood-2"></feFlood><feComposite operator="in" in="flood-2" in2="SourceAlpha" result="comp2"></feComposite><feMorphology operator="dilate" radius="1" in="comp2" result="dilate"></feMorphology><feOffset dx="-4.5" dy="0" in="dilate" result="offset"></feOffset><feGaussianBlur in="offset" stdDeviation="5.8" result="blur"></feGaussianBlur><feComponentTransfer in="blur" result="shadow"><feFuncA type="linear" slope="0.8" intercept="-0.2"></feFuncA></feComponentTransfer><feMerge><feMergeNode in="shadow"></feMergeNode><feMergeNode in="comp-extrude"></feMergeNode><feMergeNode in="SourceGraphic"></feMergeNode></feMerge></filter></defs><g filter="url(#editing-extrude-glow)"><g transform="translate(92.7839868068695, 104.76000022888184)"><path d="M33.28-7.10L33.28-7.10L33.28-7.10Q33.28-4.29 36.16-3.46L36.16-3.46L36.16-3.46Q35.46-1.09 32.70 0.19L32.70 0.19L32.70 0.19Q30.40 1.28 27.87 1.28L27.87 1.28L27.87 1.28Q25.34 1.28 24.03 0.61L24.03 0.61L24.03 0.61Q22.72-0.06 22.02-1.15L22.02-1.15L22.02-1.15Q20.86-2.82 20.86-5.95L20.86-5.95L20.86-5.95Q20.86-7.81 21.89-12.93L21.89-12.93L22.78-17.79L22.78-17.79Q23.87-23.36 23.87-25.41L23.87-25.41L23.87-25.41Q23.87-28.99 21.89-28.99L21.89-28.99L21.89-28.99Q19.39-28.99 17.79-25.34L17.79-25.34L17.79-25.34Q17.15-23.94 16.70-21.82L16.70-21.82L12.35 0L-0.51 1.28L8.51-44.80L21.38-46.08L20.86-43.52L20.86-43.52Q19.07-33.66 17.54-30.34L17.54-30.34L17.54-30.34Q21.12-33.92 27.71-33.92L27.71-33.92L27.71-33.92Q34.69-33.92 35.97-29.31L35.97-29.31L35.97-29.31Q36.42-27.84 36.42-26.56L36.42-26.56L36.42-26.56Q36.42-25.28 36.32-24.29L36.32-24.29L36.32-24.29Q36.22-23.30 35.90-21.50L35.90-21.50L35.07-16.90L33.60-9.66L33.60-9.66Q33.28-8.19 33.28-7.10ZM56.70-3.52L56.70-3.52L56.70-3.52Q54.72 1.28 48.38 1.28L48.38 1.28L48.38 1.28Q45.12 1.28 43.07-0.96L43.07-0.96L43.07-0.96Q41.34-2.94 41.34-4.93L41.34-4.93L41.34-4.93Q41.34-10.11 43.71-20.22L43.71-20.22L46.08-32.64L59.07-33.92L55.17-13.70L55.17-13.70Q54.08-8.96 54.08-7.30L54.08-7.30L54.08-7.30Q54.08-3.65 56.70-3.52ZM47.23-41.54L47.23-41.54L47.23-41.54Q47.23-44.03 49.31-45.38L49.31-45.38L49.31-45.38Q51.39-46.72 54.40-46.72L54.40-46.72L54.40-46.72Q57.41-46.72 59.23-45.38L59.23-45.38L59.23-45.38Q61.06-44.03 61.06-41.54L61.06-41.54L61.06-41.54Q61.06-39.04 59.04-37.76L59.04-37.76L59.04-37.76Q57.02-36.48 54.02-36.48L54.02-36.48L54.02-36.48Q51.01-36.48 49.12-37.76L49.12-37.76L49.12-37.76Q47.23-39.04 47.23-41.54ZM66.69-26.75L66.69-26.75L66.69-26.75Q68.86-29.82 72.16-31.87L72.16-31.87L72.16-31.87Q75.46-33.92 79.49-33.92L79.49-33.92L79.49-33.92Q83.52-33.92 85.44-32.64L85.44-32.64L97.98-33.92L93.63-9.34L93.63-9.34Q91.39 3.20 86.66 8.13L86.66 8.13L86.66 8.13Q82.11 12.80 73.28 12.80L73.28 12.80L73.28 12.80Q66.56 12.80 62.72 10.69L62.72 10.69L62.72 10.69Q58.88 8.58 58.88 5.06L58.88 5.06L58.88 5.06Q58.88 2.43 60.86 0.93L60.86 0.93L60.86 0.93Q62.85-0.58 65.92-0.58L65.92-0.58L65.92-0.58Q68.61-0.58 70.66 0.64L70.66 0.64L70.66 0.64Q71.87 1.28 72.45 2.18L72.45 2.18L72.45 2.18Q70.98 3.46 70.98 5.57L70.98 5.57L70.98 5.57Q70.98 8.32 73.54 8.32L73.54 8.32L73.54 8.32Q77.82 8.32 80.26-1.79L80.26-1.79L80.26-1.79Q80.96-4.54 81.54-7.30L81.54-7.30L81.54-7.30Q78.66-3.78 72.13-3.78L72.13-3.78L72.13-3.78Q67.58-3.78 64.96-5.95L64.96-5.95L64.96-5.95Q62.34-8.13 62.34-13.25L62.34-13.25L62.34-13.25Q62.34-16.45 63.42-20.06L63.42-20.06L63.42-20.06Q64.51-23.68 66.69-26.75ZM75.01-13.06L75.01-13.06L75.01-13.06Q75.01-8.70 77.25-8.70L77.25-8.70L77.25-8.70Q78.78-8.70 80.26-10.37L80.26-10.37L80.26-10.37Q81.41-11.71 81.86-13.70L81.86-13.70L85.12-30.14L85.12-30.14Q84.80-30.21 84.48-30.34L84.48-30.34L84.48-30.34Q83.84-30.59 83.01-30.59L83.01-30.59L83.01-30.59Q79.10-30.59 76.80-24.19L76.80-24.19L76.80-24.19Q75.01-19.20 75.01-13.06ZM132.67-7.10L132.67-7.10L132.67-7.10Q132.67-4.29 135.55-3.46L135.55-3.46L135.55-3.46Q134.85-1.09 132.10 0.19L132.10 0.19L132.10 0.19Q129.79 1.28 127.26 1.28L127.26 1.28L127.26 1.28Q124.74 1.28 123.42 0.61L123.42 0.61L123.42 0.61Q122.11-0.06 121.41-1.15L121.41-1.15L121.41-1.15Q120.26-2.82 120.26-5.95L120.26-5.95L120.26-5.95Q120.26-7.81 121.28-12.93L121.28-12.93L122.18-17.79L122.18-17.79Q123.26-23.36 123.26-25.41L123.26-25.41L123.26-25.41Q123.26-28.99 121.28-28.99L121.28-28.99L121.28-28.99Q118.78-28.99 117.18-25.34L117.18-25.34L117.18-25.34Q116.54-23.94 116.10-21.82L116.10-21.82L111.74 0L98.88 1.28L107.90-44.80L120.77-46.08L120.26-43.52L120.26-43.52Q118.46-33.66 116.93-30.34L116.93-30.34L116.93-30.34Q120.51-33.92 127.10-33.92L127.10-33.92L127.10-33.92Q134.08-33.92 135.36-29.31L135.36-29.31L135.36-29.31Q135.81-27.84 135.81-26.56L135.81-26.56L135.81-26.56Q135.81-25.28 135.71-24.29L135.71-24.29L135.71-24.29Q135.62-23.30 135.30-21.50L135.30-21.50L134.46-16.90L132.99-9.66L132.99-9.66Q132.67-8.19 132.67-7.10ZM177.15-31.55L177.15-31.55L177.15-31.55Q179.26-33.92 182.91-33.92L182.91-33.92L182.91-33.92Q185.15-33.92 186.88-32.70L186.88-32.70L186.88-32.70Q188.61-31.49 188.61-29.22L188.61-29.22L188.61-29.22Q188.61-26.94 187.90-24.51L187.90-24.51L187.90-24.51Q187.20-22.08 186.11-19.58L186.11-19.58L186.11-19.58Q183.94-14.72 180.93-10.69L180.93-10.69L180.93-10.69Q176.70-4.86 172.64-1.79L172.64-1.79L172.64-1.79Q168.58 1.28 164.16 1.28L164.16 1.28L164.16 1.28Q160.58 1.28 158.40 0.45L158.40 0.45L158.40 0.45Q158.02-12.99 157.54-17.79L157.54-17.79L157.54-17.79Q157.06-22.59 156.67-25.22L156.67-25.22L156.67-25.22Q156.03-30.34 154.11-31.55L154.11-31.55L154.11-31.55Q155.58-32.83 157.02-33.38L157.02-33.38L157.02-33.38Q158.46-33.92 161.44-33.92L161.44-33.92L161.44-33.92Q164.42-33.92 166.53-31.58L166.53-31.58L166.53-31.58Q168.64-29.25 169.06-25.12L169.06-25.12L169.06-25.12Q169.47-20.99 169.47-16L169.47-16L169.47-16Q169.47-11.01 169.09-4.99L169.09-4.99L169.09-4.99Q171.07-6.40 173.18-10.69L173.18-10.69L173.18-10.69Q176.06-16.64 177.09-23.81L177.09-23.81L177.09-23.81Q177.41-25.98 177.41-28.29L177.41-28.29L177.41-28.29Q177.41-30.59 177.15-31.55ZM205.70-3.52L205.70-3.52L205.70-3.52Q203.71 1.28 197.38 1.28L197.38 1.28L197.38 1.28Q194.11 1.28 192.06-0.96L192.06-0.96L192.06-0.96Q190.34-2.94 190.34-4.93L190.34-4.93L190.34-4.93Q190.34-10.11 192.70-20.22L192.70-20.22L195.07-32.64L208.06-33.92L204.16-13.70L204.16-13.70Q203.07-8.96 203.07-7.30L203.07-7.30L203.07-7.30Q203.07-3.65 205.70-3.52ZM196.22-41.54L196.22-41.54L196.22-41.54Q196.22-44.03 198.30-45.38L198.30-45.38L198.30-45.38Q200.38-46.72 203.39-46.72L203.39-46.72L203.39-46.72Q206.40-46.72 208.22-45.38L208.22-45.38L208.22-45.38Q210.05-44.03 210.05-41.54L210.05-41.54L210.05-41.54Q210.05-39.04 208.03-37.76L208.03-37.76L208.03-37.76Q206.02-36.48 203.01-36.48L203.01-36.48L203.01-36.48Q200-36.48 198.11-37.76L198.11-37.76L198.11-37.76Q196.22-39.04 196.22-41.54ZM210.30-3.07L210.30-3.07L218.24-44.80L231.23-46.08L229.25-36.29L229.25-36.29Q228.54-33.28 227.65-31.17L227.65-31.17L227.65-31.17Q229.06-32.96 232.13-33.66L232.13-33.66L232.13-33.66Q233.02-33.92 234.11-33.92L234.11-33.92L234.11-33.92Q240.06-33.92 243.33-30.30L243.33-30.30L243.33-30.30Q246.59-26.69 246.59-19.71L246.59-19.71L246.59-19.71Q246.59-10.62 241.41-4.93L241.41-4.93L241.41-4.93Q235.84 1.28 225.73 1.28L225.73 1.28L225.73 1.28Q218.75 1.28 213.50-1.02L213.50-1.02L213.50-1.02Q211.65-1.86 210.30-3.07ZM226.56-22.40L223.17-3.65L223.17-3.65Q224.51-2.50 226.18-2.50L226.18-2.50L226.18-2.50Q227.84-2.50 228.80-3.14L228.80-3.14L228.80-3.14Q229.76-3.78 230.46-5.06L230.46-5.06L230.46-5.06Q232.38-8.51 233.92-19.07L233.92-19.07L233.92-19.07Q234.37-22.08 234.37-25.09L234.37-25.09L234.37-25.09Q234.37-28.10 233.70-29.06L233.70-29.06L233.70-29.06Q233.02-30.02 231.74-30.02L231.74-30.02L231.74-30.02Q227.84-30.02 226.56-22.40L226.56-22.40ZM276.35-10.82L276.35-10.82L276.35-10.82Q277.95-9.73 277.95-7.33L277.95-7.33L277.95-7.33Q277.95-4.93 276.74-3.39L276.74-3.39L276.74-3.39Q275.52-1.86 273.54-0.83L273.54-0.83L273.54-0.83Q269.44 1.28 265.02 1.28L265.02 1.28L265.02 1.28Q260.61 1.28 258.02 0.32L258.02 0.32L258.02 0.32Q255.42-0.64 253.70-2.43L253.70-2.43L253.70-2.43Q250.30-5.82 250.30-12.03L250.30-12.03L250.30-12.03Q250.30-21.70 255.55-27.58L255.55-27.58L255.55-27.58Q261.18-33.92 270.98-33.92L270.98-33.92L270.98-33.92Q277.06-33.92 280.06-31.36L280.06-31.36L280.06-31.36Q282.30-29.44 282.30-26.30L282.30-26.30L282.30-26.30Q282.30-15.04 262.85-15.04L262.85-15.04L262.85-15.04Q262.59-13.38 262.59-11.97L262.59-11.97L262.59-11.97Q262.59-9.02 263.90-7.90L263.90-7.90L263.90-7.90Q265.22-6.78 267.65-6.78L267.65-6.78L267.65-6.78Q270.08-6.78 272.67-7.90L272.67-7.90L272.67-7.90Q275.26-9.02 276.35-10.82ZM263.30-17.79L263.30-17.79L263.30-17.79Q267.84-17.79 270.46-20.61L270.46-20.61L270.46-20.61Q273.09-23.30 273.09-27.58L273.09-27.58L273.09-27.58Q273.09-29.06 272.54-29.86L272.54-29.86L272.54-29.86Q272-30.66 270.91-30.66L270.91-30.66L270.91-30.66Q269.82-30.66 268.90-30.24L268.90-30.24L268.90-30.24Q267.97-29.82 267.01-28.42L267.01-28.42L267.01-28.42Q264.64-25.22 263.30-17.79ZM296.80 0.64L296.80 0.64L296.80 0.64Q293.76 0 292.19-0.29L292.19-0.29L292.19-0.29Q290.62-0.58 288.80-0.58L288.80-0.58L288.80-0.58Q286.98-0.58 285.18 0.06L285.18 0.06L285.18 0.06Q284.22-0.51 283.62-1.66L283.62-1.66L283.62-1.66Q283.01-2.82 283.01-4.61L283.01-4.61L283.01-4.61Q283.01-8.38 286.85-11.26L286.85-11.26L303.10-22.98L303.10-22.98Q298.56-24.26 294.43-24.26L294.43-24.26L294.43-24.26Q290.30-24.26 288.83-21.44L288.83-21.44L288.83-21.44Q286.66-24 286.66-28.03L286.66-28.03L286.66-28.03Q286.66-30.72 288.61-32.48L288.61-32.48L288.61-32.48Q290.56-34.24 294.66-34.24L294.66-34.24L294.66-34.24Q296.96-34.24 299.04-33.95L299.04-33.95L299.04-33.95Q301.12-33.66 302.98-33.41L302.98-33.41L306.43-32.90L306.43-32.90Q308.10-32.64 309.79-32.64L309.79-32.64L309.79-32.64Q311.49-32.64 312.77-33.34L312.77-33.34L312.77-33.34Q314.43-31.81 314.43-29.70L314.43-29.70L314.43-29.70Q314.43-26.37 310.34-22.91L310.34-22.91L294.14-10.82L294.14-10.82Q299.14-9.34 301.70-9.34L301.70-9.34L301.70-9.34Q307.07-9.34 309.38-11.90L309.38-11.90L309.38-11.90Q311.17-9.86 311.17-6.30L311.17-6.30L311.17-6.30Q311.17-2.75 308.86-0.74L308.86-0.74L308.86-0.74Q306.56 1.28 302.40 1.28L302.40 1.28L302.40 1.28Q299.84 1.28 296.80 0.64Z" fill="#eb6c6c"></path></g></g><style>text {
  font-size: 64px;
  font-family: Arial Black;
  dominant-baseline: central;
  text-anchor: middle;
}</style></svg>